<?xml version="1.0" encoding="UTF-8" standalone="no"?>
<!-- Created with Inkscape (http://www.inkscape.org/) -->

<svg
   width="322.66556mm"
   height="207.32312mm"
   viewBox="0 0 322.66556 207.32312"
   version="1.1"
   id="svg5"
   xmlns:inkscape="http://www.inkscape.org/namespaces/inkscape"
   xmlns:sodipodi="http://sodipodi.sourceforge.net/DTD/sodipodi-0.dtd"
   xmlns="http://www.w3.org/2000/svg"
   xmlns:svg="http://www.w3.org/2000/svg">
  <sodipodi:namedview
     id="namedview7"
     pagecolor="#ffffff"
     bordercolor="#666666"
     borderopacity="1.0"
     inkscape:showpageshadow="2"
     inkscape:pageopacity="0.0"
     inkscape:pagecheckerboard="0"
     inkscape:deskcolor="#d1d1d1"
     inkscape:document-units="mm"
     showgrid="false"
     showguides="false" />
  <defs
     id="defs2" />
  <g
     inkscape:label="Layer 1"
     inkscape:groupmode="layer"
     id="layer1"
     transform="translate(73.257456,-37.279654)">
    <g
       aria-label="D"
       transform="matrix(1.0145303,-0.0807615,0.07504625,1.0376671,172.18074,-35.330495)"
       id="text2217-7"
       style="font-size:258.76px;line-height:1.25;font-family:AppleMyungjo;-inkscape-font-specification:AppleMyungjo;fill:#f5b2b5;fill-opacity:1;stroke-width:6.46901"
       inkscape:export-filename="DeMentidDev.svg"
       inkscape:export-xdpi="120"
       inkscape:export-ydpi="120">
      <path
         id="path2252"
         d="m -22.273438,68.869141 c -31.673828,0 -63.347656,0 -95.021482,0 0,4.25651 0,8.51302 0,12.769531 7.57241,0.04299 15.14849,-0.0918 22.718419,0.0855 2.377349,0.199803 5.094814,0.946299 6.312803,3.195716 1.203449,2.347528 0.610357,5.061333 0.755893,7.585188 -0.006,48.994354 0.02282,97.989444 -0.02893,146.983314 -0.114472,2.34917 -1.697848,4.57467 -3.959943,5.30623 -3.53141,1.42873 -7.291383,0.94204 -11.052932,1.04132 -4.9151,0 -9.83021,0 -14.74531,0 0,4.25651 0,8.51302 0,12.76953 30.283876,-0.008 60.568213,0.0345 90.851787,-0.0396 8.767731,-0.17459 17.5996,-0.55391 26.17400078,-2.52326 12.91842522,-2.80065 25.34681122,-8.5555 35.19681522,-17.46309 11.458763,-10.24423 19.543106,-23.96924 23.829672,-38.67054 4.250544,-14.36042 5.325278,-29.49649 4.63926,-44.40725 C 62.560814,139.27165 58.803527,122.96042 50.720052,108.75253 44.044444,96.996039 34.603391,86.793464 23.312692,79.344333 18.072169,75.906813 12.280196,73.308412 6.1994736,71.775291 -3.0693416,69.314745 -12.722755,68.778404 -22.273438,68.869141 Z M -54.839844,83.1875 c 0.02145,-0.0082 0.08266,-0.05947 0,0 z"
         style="fill:#f5b2b5;fill-opacity:1" />
      <text
         xml:space="preserve"
         style="font-size:20.2295px;line-height:1.25;font-family:Amsterdam;-inkscape-font-specification:Amsterdam;fill:#f5b2b5;fill-opacity:1;stroke-width:3.27163"
         x="-342.49216"
         y="73.592293"
         id="text2259"
         transform="rotate(9.1085691)"><tspan
           sodipodi:role="line"
           style="fill:#f5b2b5;fill-opacity:1;stroke-width:3.27163"
           x="-342.49216"
           y="73.592293"
           id="tspan2269" /></text>
      <text
         xml:space="preserve"
         style="font-size:10.5833px;line-height:1.25;font-family:Amsterdam;-inkscape-font-specification:Amsterdam;fill:#f5b2b5;fill-opacity:1;stroke-width:1.71159"
         x="-193.43687"
         y="62.804184"
         id="text2263"
         transform="rotate(9.1085691)"><tspan
           sodipodi:role="line"
           id="tspan2261"
           style="fill:#f5b2b5;fill-opacity:1;stroke-width:1.71159"
           x="-193.43687"
           y="62.804184"></tspan><tspan
           sodipodi:role="line"
           style="fill:#f5b2b5;fill-opacity:1;stroke-width:1.71159"
           id="tspan2265"
           x="-193.43687"
           y="76.03331" /><tspan
           sodipodi:role="line"
           style="fill:#f5b2b5;fill-opacity:1;stroke-width:1.71159"
           x="-193.43687"
           y="89.262436"
           id="tspan2267" /></text>
    </g>
    <g
       id="g2339"
       transform="rotate(4.7668659,431.93205,2146.6997)">
      <text
         xml:space="preserve"
         style="font-style:normal;font-variant:normal;font-weight:normal;font-stretch:normal;font-size:253.194px;line-height:1.25;font-family:AppleMyungjo;-inkscape-font-specification:AppleMyungjo;fill:#f5b2b5;fill-opacity:1;stroke-width:6.32988"
         x="-235.47156"
         y="278.76254"
         id="text2332"><tspan
           sodipodi:role="line"
           id="tspan2330"
           style="font-style:normal;font-variant:normal;font-weight:normal;font-stretch:normal;font-family:AppleMyungjo;-inkscape-font-specification:AppleMyungjo;fill:#f5b2b5;fill-opacity:1;stroke-width:6.32988"
           x="-235.47156"
           y="278.76254">D</tspan></text>
      <path
         id="path234"
         style="fill:#ffffff;stroke-width:4;stroke-linecap:round;stroke-dasharray:none;paint-order:markers stroke fill"
         d="m -17.109247,86.904058 c -45.45233,1.7e-4 -82.29868,36.846522 -82.29885,82.298852 0.0164,19.20395 6.7481,37.79754 19.02933,52.56113 l 106.346993,-19.90782 2.033467,0.51366 c 1.190654,0.96386 1.373732,2.0086 1.562179,3.05459 0.188445,1.04598 0.231601,2.20692 0.172083,3.53932 -0.119032,2.66479 -0.673264,5.99687 -1.740463,9.74618 -2.134397,7.4986 -6.336944,16.63768 -13.501501,24.5525 -0.971423,1.07315 -2.000422,2.1197 -3.08405,3.1347 32.316983,-11.93845 53.777836,-42.74264 53.78018,-77.19426 -1.65e-4,-45.45253 -36.846834,-82.298972 -82.299368,-82.298852 z m 9.4919256,63.850372 c 13.650601,1.1e-4 24.7164944,11.06623 24.7163214,24.71683 -1.08e-4,13.6504 -11.0659194,24.71621 -24.7163214,24.71632 -13.6508056,4.6e-4 -24.7172456,-11.06551 -24.7173556,-24.71632 -1.7e-4,-13.65101 11.06635,-24.71729 24.7173556,-24.71683 z m 0,5.59552 c -11.4374456,-4.9e-4 -19.1220356,7.68386 -19.1218256,19.12131 7e-5,11.43725 7.68458,19.12129 19.1218256,19.1208 11.436846,-8e-5 19.1207224,-7.68395 19.1207974,-19.1208 2.07e-4,-11.43705 -7.6837524,-19.12123 -19.1207974,-19.12131 z m -65.6683456,23.18618 c 7.29494,10e-6 13.26173,5.96681 13.26173,13.26172 0,7.29493 -5.9668,13.26173 -13.26173,13.26173 -7.29491,10e-6 -13.26379,-5.96679 -13.26379,-13.26173 -1e-5,-7.29492 5.96887,-13.26172 13.26379,-13.26172 z m 0,4.9997 c -4.59272,0 -8.26358,3.6693 -8.26358,8.26202 0,4.59274 3.67087,8.26152 8.26358,8.26152 4.59273,0 8.26203,-3.66878 8.26203,-8.26152 0,-4.59271 -3.66929,-8.26201 -8.26203,-8.26202 z m 97.965083,22.64874 -35.652088,6.67401 c 3.9697336,3.73202 9.6850036,7.28054 15.9530316,8.94674 1.067214,0.28446 1.701815,1.38015 1.417484,2.4474 -0.284268,1.06613 -1.378246,1.70065 -2.444812,1.418 -7.86469,-2.09066 -14.6872306,-6.64439 -19.1719586,-11.39827 -0.15168,-0.16205 -0.27533,-0.34822 -0.36587,-0.55087 l -19.78535,3.70365 c 3.77569,3.80227 7.63139,6.16703 14.33246,7.94835 1.06826,0.28332 1.70422,1.37937 1.42006,2.4474 -0.28423,1.06742 -1.37999,1.70229 -2.44739,1.418 -7.71185,-2.05003 -12.59107,-5.2057 -16.99586,-9.87485 -0.29677,-0.31532 -0.48319,-0.71844 -0.53124,-1.14877 l -18.47122,3.45767 c 3.08368,2.84794 5.27062,3.4471 9.21908,4.58164 1.06154,0.30525 1.67465,1.41323 1.36942,2.47478 -0.30456,1.06217 -1.41277,1.67609 -2.47478,1.37098 -4.63015,-1.33042 -8.16556,-2.54958 -12.60544,-7.25589 -0.0825,-0.0893 -0.15673,-0.18604 -0.22169,-0.28887 l -13.71906,2.5678 c 15.51081,16.19768 36.96002,25.36399 59.38656,25.37881 5.016637,-7.3e-4 10.0227006,-0.46015 14.9556746,-1.37252 5.158667,-2.77665 9.421109,-6.33492 12.9402964,-10.22264 6.52708,-7.21059 10.4484,-15.7092 12.400276,-22.56658 0.975937,-3.42867 1.456967,-6.45443 1.552877,-8.60154 0.03068,-0.68693 -0.02473,-1.08188 -0.06046,-1.55443 z"
         sodipodi:nodetypes="cccccsssscccccccccccccssssssssssccccccccccccccccccccccsssc" />
      <g
         id="path236"
         style="fill:#ff0000">
        <path
           style="color:#000000;fill:#ff0000;fill-opacity:0;stroke-width:5;stroke-linecap:round;stroke-miterlimit:10;-inkscape-stroke:none;paint-order:markers stroke fill"
           d="m -147.93745,210.38248 a 10.762273,10.762273 0 0 1 -10.76227,10.76227 10.762273,10.762273 0 0 1 -10.76228,-10.76227 10.762273,10.762273 0 0 1 10.76228,-10.76228 10.762273,10.762273 0 0 1 10.76227,10.76228 z"
           id="path2077" />
      </g>
    </g>
  </g>
</svg>
